<?xml version="1.0" encoding="utf-8"?>
<!-- Generator: Adobe Illustrator 16.0.0, SVG Export Plug-In . SVG Version: 6.00 Build 0)  -->
<!DOCTYPE svg PUBLIC "-//W3C//DTD SVG 1.1//EN" "http://www.w3.org/Graphics/SVG/1.1/DTD/svg11.dtd">
<svg version="1.1" xmlns="http://www.w3.org/2000/svg" xmlns:xlink="http://www.w3.org/1999/xlink" x="0px" y="0px" width="850px"
	 height="595.279px" viewBox="0 0 850 595.279" enable-background="new 0 0 850 595.279" xml:space="preserve">
<g id="Coloured_x5F_Peak">
	<path fill="#FFFFFF" d="M117.094,172.717c6.041-6.025,18.099-18.834,21.867-21.104c3.757-2.253,88.913-3.762,111.524,0.759
		c22.589,4.521,100.223,51.257,100.223,51.257c-12.064,25.605-46.694,69.882-64.017,84.949
		c-17.345,15.073-44.493,6.972-54.295,2.447c-9.796-4.523-75.103-41.994-97.208-51.198c-20.635-8.591-14.982-7.235-24.786-7.235
		c-0.94,0,1.031-0.477-0.154,0.461c-3.695,2.925-8.005,8.929-13.24,13.855c-4.734,4.456-11.872,9.821-16.472,14.009
		c-7.547,6.871-16.935,8.252-16.935,8.252c-36.935-2.25-22.787-32.369-16.382-37.284C56.75,224.604,117.094,172.717,117.094,172.717
		 M543.761,442.23c0,0-70.291,17.197-83.764,22.446c-13.445,5.229-24.672,6.722-22.422,15.698
		c2.25,8.965,20.936,66.545,66.539,73.277c45.631,6.732,112.178-16.44,159.279-47.851c0,0-23.926-4.497-47.102-19.444
		C593.108,471.398,543.761,442.23,543.761,442.23 M302.386,442.34c0,0-48.993,28.96-72.018,43.811
		c-23.01,14.844-44.293,20.9-44.293,20.9c46.759,31.178,110.362,52.596,155.666,45.914c45.28-6.686,63.84-63.851,66.064-72.757
		c2.239-8.908-8.906-10.391-22.262-15.586C372.172,459.411,302.386,442.34,302.386,442.34"/>
</g>
<g id="Coloured_x5F_Body">
	<path fill="#FFFFFF" d="M253.336,22.611c0.164,6.16-4.763,5.499-10.804,5.654c-6.041,0.156-10.924,0.277-11.063-5.093
		c-0.075-2.959,4.75-5.496,10.782-5.649C248.301,17.364,253.264,19.651,253.336,22.611 M325.263,198.89
		c0,0,15.815,4.124,24.854,6.026c9.036,1.871,43.336,8.645,43.336,8.645s3.387-27.495,3.001-47.09
		c-0.363-19.588-1.887-37.668-16.183-59.144c-14.316-21.477-50.875-55.011-71.582-65.184l26.518,40.55L325.263,198.89z
		 M117.654,172.115c0,0,32.031-12.042,58.398-9.794c26.383,2.259,71.6,11.682,149.208,36.568c0,0,7.526-41.082,10.534-57.655
		c3.025-16.593,17.762-83.975-37.668-105.497c-17.49-6.794-33.295-9.76-45.383-10.968c-0.291-0.029,0.394-0.255,0.354,0.03
		c-0.577,4.185-8.609,3.62-11.472,3.536c-3.861-0.114-9.74,0.144-9.812-4.041c-0.007-0.387,0.334-0.123,0-0.104
		c-1.96,0.116-3.012,0.246-3.012,0.246s-39.187,5.266-60.292,23.361c-21.086,18.068-33.141,32.405-37.68,70.829
		C126.308,157.053,117.654,172.115,117.654,172.115 M640.244,62.24c-0.08-2.959-5.047-5.242-11.08-5.086
		c-6.039,0.155-10.867,2.687-10.787,5.646c0.129,5.373,5.018,5.25,11.059,5.093C635.473,67.738,640.398,68.401,640.244,62.24
		 M769.199,150.845c-10.422-15.929-41.018-88.083-136.9-88.462h-0.006h-0.361h-0.379c-95.859,0.379-126.457,72.533-136.859,88.462
		c-10.451,15.98-1.148,79.135-1.148,79.135s11.582,12.397,27.561,19.767c15.979,7.374,56.521,11.687,56.521,11.687
		c-1.842-7.372-7.996-54.692-7.996-54.692s-0.393-14.474,9.195-25.739c9.586-11.271,22.641-19.598,47.33-19.738h0.012
		c0.156,0.018,0.311,0.021,0.49,0.021c1.52,0,3.291-0.002,5.273-0.021c1.992,0.018,3.771,0.021,5.285,0.021
		c0.166,0,0.322-0.002,0.48-0.021c24.689,0.14,37.77,8.467,47.35,19.738c9.59,11.265,7.314,25.739,7.314,25.739l-0.27,3.42
		c0,0-4.006,43.9-5.84,51.272c0,0,40.547-4.312,56.523-11.687c15.971-7.369,25.174-17.189,25.174-17.189
		S779.633,166.826,769.199,150.845 M820.246,531.475c6.533-13.391,8.584-71.891,8.584-71.891
		c-1.273-15.876-4.957-29.35-10.09-40.801c-5.965-13.327-24.996-23.35-30.992-31.732c-5.986-8.373-28.848-26.673-33.699-29.9
		c-8.973-5.977-44.109-15.709-44.109-15.709c-0.242,0-0.457,0.048-0.693,0.053c-14.443-3.496-26.113-5.466-36.24-6.233
		c-19.795-1.507-33.98,12.358-51.564,14.694c-17.941,2.391-24.719,12.2-39.445,31.146c-22.365,28.803-43.293,62.783-43.293,62.783
		s16.455,13.463,33.65,23.934c17.195,10.463,55.324,26.169,55.324,26.169v-0.046c9.199,5.05,19.428,8.91,28.418,12.019
		c21.684,7.478,90.486,27.657,107.684,29.899C772.012,536.936,813.717,544.862,820.246,531.475 M713.193,339.504
		c0.363-2.982-4.287-6.023-10.383-6.768c-6.092-0.746-11.314,1.08-11.682,4.072c-0.66,5.415,4.264,6.02,10.357,6.766
		C707.586,344.321,712.43,345.72,713.193,339.504 M28.217,530.949c6.486,13.294,47.896,5.42,56.067,4.35
		c17.078-2.225,85.388-22.262,106.916-29.682c8.92-3.088,19.077-6.924,28.216-11.934v0.045c0,0,37.86-15.597,54.932-25.982
		c17.077-10.393,33.409-23.768,33.409-23.768s-20.78-33.734-42.988-62.332c-14.623-18.809-21.348-28.555-39.159-30.923
		c-17.46-2.32-31.542-16.083-51.205-14.588c-10.054,0.759-21.641,2.716-35.978,6.188c-0.229-0.011-0.451-0.056-0.692-0.056
		c0,0-34.885,9.662-43.791,15.595c-4.812,3.212-27.521,21.379-33.46,29.692c-5.949,8.324-24.849,18.272-30.77,31.51
		c-5.089,11.368-8.755,24.744-10.015,40.504C19.699,459.569,21.733,517.655,28.217,530.949 M134.511,340.345
		c0.758,6.172,5.572,4.781,11.621,4.04c6.052-0.738,10.945-1.337,10.286-6.713c-0.368-2.967-5.543-4.787-11.597-4.043
		C138.77,334.365,134.149,337.383,134.511,340.345 M596.345,233.652v27.585h93.633v-29.605L596.345,233.652z M597.683,234.195
		l-1.15,27.558l87.586,3.648l1.23-29.576L597.683,234.195z"/>
</g>
<g id="Coloured_x5F_contrast">
	<path fill="#BBBBBC" d="M340.63,102.216c-0.361,10.728-11.668,98.169-11.668,98.169l-15.814-5.157c0,0,15.385-79.271,14.557-93.873
		c-1.914-33.718-15.467-53.137-20.746-62.187C306.958,39.169,342.083,58.96,340.63,102.216 M313.146,195.229
		c0,0-9.939,8.561-58.539,26.056c-48.6,17.496-72.798,35.903-72.798,35.903l13.009,7.713c0,0,44.235-25.635,69.021-33.409
		c24.787-7.773,63.666-30.622,65.125-31.105C330.423,199.903,313.146,195.229,313.146,195.229 M79.027,222.207
		c0,0,11.712,7.389,11.594,5.855c-0.074-0.959,2.081-17.368,3.107-35.854l-12.757,11.277c-0.826,13.408-2.466,18.571-2.467,18.571
		 M631.979,495.796c0,0-18.711,8.695-83.863,8.117c-65.16-0.572-97.104,7.988-97.104,7.988l6.28,9.258
		c0,0,66.428-9.307,99.338-7.893c32.896,1.416,95.461-6.754,97.401-6.701C667.228,506.945,631.27,495.47,631.979,495.796
		 M656.88,506.257c7.24-9.221,22.027-44.02,33.875-84.844c3.782-13.029,12.746-46.588,12.441-53.965
		c-0.45-10.637-3.893-19.678-5.843-24.52c-0.113-0.281-0.946-0.334-0.946-0.334l-1.255-0.158l-4.397,28.936
		c-19.751,71.111-59.365,124.643-59.365,124.643L656.88,506.257z M214.921,495.523c0.708-0.32-35,11.072-21.888,10.697
		c1.92-0.053,64.035,8.053,96.695,6.65c32.673-1.402,99.272,8.057,99.272,8.057l5.861-9.352c0,0-31.984-8.564-96.674-7.99
		C233.493,504.156,214.921,495.523,214.921,495.523 M214.921,495.523c0,0-38.749-52.932-58.365-123.537l-4.37-28.76l-0.842,0.139
		c0,0-1.09-0.258-1.294,0.281c-1.826,4.822-5.387,13.809-5.829,24.441c-0.31,7.33,8.585,40.646,12.335,53.584
		c11.772,40.533,26.465,74.816,33.663,83.973L214.921,495.523z M175.965,254.352c-56.882-31.646-71.591-30.14-94.191-32.019
		c-20.189-1.683-34.964,10.743-37.875,13.428c-6.35,7.907-15.238,32.026,20.65,33.314c0,0-13.188-1.759-17.162-6.548
		c-5.082-6.124-5.066-12.571-1.955-17.199c5.082-7.558,15.659-15.075,37.003-15.274c9.8-0.091,30.992,0.185,52.848,9.975
		c21.856,9.797,87.966,50.604,97.721,55.219c12.498,5.92,27.125,4.045,42.471-0.098C240.924,300.003,232.808,285.96,175.965,254.352
		 M668.469,252.861c6.645,0.123,9.051-3.596,9.053-6.979l-8.588,0.005l-0.57,2.05c6.092-3.371,7.047,1.383-1.359,4.924h1.473
		H668.469z M631.102,247.318l-0.828,3.166l-3.605-3.973c-0.018-0.033-0.521-0.633-1.07-0.6c-0.777,0.017-0.959,0.838-0.959,0.838
		l-1.703,6.046h1.711l1.234-4.521l3.895,4.212c0,0.019,0.369,0.377,0.832,0.377c0.102,0,0.188-0.017,0.273-0.052
		c0.061-0.017,0.369-0.101,0.557-0.65l1.773-6.25h-0.139C631.473,245.911,631.102,247.318,631.102,247.318 M640.752,247.349
		c-0.018,0,0.418-1.199,1.422-1.438l-8.289,0.017l-0.385,1.474h2.955l-1.48,5.342h1.686l1.463-5.342h2.605L640.752,247.349z
		 M608.16,250.382l2.676-0.018c0.008,0,0.119,0.018,0.305,0.018c0.686,0,2.33-0.154,2.955-1.474l0.268-0.72
		c0.016-0.033,0.281-0.89-0.217-1.557c-0.359-0.482-1.016-0.721-1.967-0.721h-5.164l-1.918,6.832h1.688l0.658-2.361l0.377-1.39
		l0.473-1.728h3.654c0,0,1.088-0.034,0.916,0.684l-0.129,0.395c0,0-0.188,0.668-0.805,0.668l-3.393-0.019L608.16,250.382z
		 M668.082,245.911c-1.609,0-1.971,1.406-1.986,1.406l-0.822,3.166l-3.596-3.973c-0.035-0.033-0.531-0.633-1.098-0.6
		c-0.75,0.017-0.957,0.838-0.957,0.838l-1.678,6.046h1.709l1.217-4.521l3.889,4.212c0.035,0.016,0.395,0.377,0.857,0.377
		c0.084,0,0.17-0.017,0.271-0.052c0.037-0.017,0.359-0.101,0.549-0.65l1.762-6.25H668.082z M622.131,247.253l-3.932,0.012
		c0,0-1.301,0.034-1.547,0.961l-0.643,2.274c0,0-0.291,0.976,1.344,0.976h1.943c0,0,0.881,0.037,1.49-0.463
		c0,0,0.342-0.291,0.504-0.77L622.131,247.253z M623.955,245.973l-1.285,4.817c-0.248,0.772-0.779,1.217-0.797,1.235
		c-0.855,0.686-1.994,0.754-2.32,0.754h-0.076h-3.031c-0.986,0-1.662-0.223-1.986-0.667c-0.326-0.447-0.188-0.945-0.18-0.961
		l0.961-3.443c0.479-1.645,2.678-1.729,2.771-1.729l1.176-0.007H623.955z M648.248,247.253l-3.932,0.012
		c0,0-1.301,0.034-1.551,0.961l-0.639,2.274c0,0-0.293,0.976,1.34,0.976h1.947c0,0,0.881,0.037,1.488-0.463
		c0,0,0.344-0.291,0.504-0.77L648.248,247.253z M650.07,245.973l-1.283,4.817c-0.248,0.772-0.781,1.217-0.797,1.235
		c-0.855,0.686-1.996,0.754-2.32,0.754h-0.078h-3.029c-0.986,0-1.662-0.223-1.986-0.667c-0.326-0.447-0.189-0.945-0.18-0.961
		l0.957-3.443c0.48-1.645,2.682-1.729,2.775-1.729l1.174-0.007H650.07z M657.266,247.253l-3.93,0.012c0,0-1.301,0.034-1.551,0.961
		l-0.639,2.274c0,0-0.293,0.976,1.344,0.976h1.941c0,0,0.883,0.037,1.49-0.463c0,0,0.344-0.291,0.508-0.77L657.266,247.253z
		 M659.092,245.973l-1.285,4.817c-0.25,0.772-0.779,1.217-0.797,1.235c-0.855,0.686-1.996,0.754-2.32,0.754h-0.076h-3.031
		c-0.986,0-1.662-0.223-1.986-0.667c-0.324-0.447-0.189-0.945-0.18-0.961l0.957-3.443c0.48-1.645,2.68-1.729,2.775-1.729
		l1.174-0.007H659.092z M573.193,538.282c6.539-1.189,8.164-5.31,7.502-8.627l-8.418,1.699l-0.157,2.117
		c5.308-4.502,7.181-0.031-0.36,5.1l1.443-0.291L573.193,538.282z M535.467,540.212l-0.187,3.268l-4.317-3.186
		c-0.025-0.027-0.637-0.516-1.168-0.377c-0.76,0.173-0.775,1.014-0.775,1.014l-0.477,6.261l1.678-0.339l0.317-4.672l4.649,3.36
		c0.002,0.016,0.434,0.295,0.888,0.204c0.1-0.021,0.182-0.05,0.259-0.102c0.055-0.03,0.343-0.171,0.418-0.748l0.506-6.479
		l-0.134,0.027C535.553,538.76,535.467,540.212,535.467,540.212 M544.936,538.342c-0.018,0.003,0.173-1.258,1.11-1.691l-8.123,1.65
		l-0.089,1.519l2.9-0.58l-0.4,5.529l1.652-0.331l0.382-5.528l2.552-0.513L544.936,538.342z M513.581,547.741l2.62-0.545
		c0.007-0.002,0.12-0.008,0.302-0.043c0.675-0.137,2.255-0.611,2.604-2.03l0.122-0.756c0.009-0.038,0.101-0.929-0.518-1.485
		c-0.449-0.398-1.14-0.506-2.073-0.319l-5.06,1.019l-0.536,7.077l1.655-0.331l0.179-2.445l0.096-1.438l0.123-1.789l3.582-0.72
		c0,0,1.061-0.245,1.033,0.491l-0.048,0.412c0,0-0.052,0.693-0.658,0.813l-3.328,0.651L513.581,547.741z M571.445,531.542
		c-1.58,0.318-1.654,1.77-1.67,1.773l-0.182,3.265l-4.31-3.188c-0.038-0.024-0.645-0.513-1.194-0.37
		c-0.73,0.166-0.771,1.013-0.771,1.013l-0.454,6.255l1.675-0.338l0.305-4.668l4.641,3.359c0.036,0.012,0.461,0.291,0.915,0.2
		c0.081-0.017,0.163-0.046,0.257-0.103c0.031-0.025,0.331-0.168,0.41-0.744l0.495-6.478L571.445,531.542z M526.662,541.917
		l-3.854,0.786c0,0-1.267,0.29-1.325,1.249l-0.182,2.355c0,0-0.094,1.016,1.507,0.693l1.907-0.384c0,0,0.871-0.139,1.371-0.747
		c0,0,0.277-0.352,0.34-0.855L526.662,541.917z M528.197,540.304l-0.311,4.977c-0.092,0.806-0.525,1.346-0.539,1.369
		c-0.703,0.84-1.805,1.13-2.125,1.195l-0.076,0.014l-2.97,0.6c-0.968,0.193-1.676,0.109-2.079-0.264
		c-0.409-0.377-0.369-0.89-0.366-0.908l0.261-3.564c0.148-1.704,2.287-2.225,2.379-2.242l1.152-0.236L528.197,540.304z
		 M552.267,536.771l-3.854,0.783c0,0-1.268,0.293-1.33,1.249l-0.178,2.356c0,0-0.096,1.015,1.508,0.692l1.906-0.384
		c0,0,0.872-0.136,1.369-0.746c0,0,0.279-0.353,0.343-0.856L552.267,536.771z M553.799,535.157l-0.307,4.974
		c-0.09,0.806-0.526,1.349-0.54,1.369c-0.704,0.84-1.808,1.133-2.125,1.196l-0.077,0.016l-2.969,0.598
		c-0.968,0.192-1.674,0.108-2.08-0.264c-0.406-0.377-0.37-0.888-0.365-0.908l0.261-3.562c0.146-1.707,2.288-2.225,2.379-2.242
		l1.149-0.236L553.799,535.157z M561.107,534.993l-3.851,0.783c0,0-1.269,0.293-1.331,1.248l-0.179,2.357
		c0,0-0.096,1.015,1.51,0.692l1.902-0.384c0,0,0.872-0.139,1.371-0.747c0,0,0.279-0.352,0.345-0.856L561.107,534.993z
		 M562.645,533.377l-0.312,4.976c-0.091,0.807-0.522,1.348-0.536,1.369c-0.703,0.84-1.809,1.133-2.127,1.197l-0.074,0.014
		l-2.973,0.6c-0.965,0.192-1.673,0.108-2.08-0.264c-0.406-0.377-0.369-0.891-0.365-0.908l0.262-3.564
		c0.145-1.705,2.286-2.223,2.379-2.243l1.148-0.235L562.645,533.377z M314.803,240.497c4.406-4.976,3.14-9.22,0.569-11.418
		l-5.573,6.537l1.188,1.762c1.392-6.82,5.628-4.463,2.867,4.232l0.953-1.121L314.803,240.497z M286.328,265.32l1.871,2.688
		l-5.362,0.161c-0.036-0.007-0.819-0.013-1.151,0.425c-0.492,0.605,0.017,1.275,0.017,1.275l3.491,5.22l1.113-1.304l-2.639-3.87
		l5.73-0.23c0.014,0.011,0.526-0.036,0.826-0.388c0.066-0.078,0.113-0.152,0.141-0.24c0.025-0.058,0.164-0.346-0.132-0.847
		l-3.607-5.407l-0.089,0.105C285.498,264.126,286.328,265.32,286.328,265.32 M292.617,257.999c-0.012,0.014-0.641-1.094-0.172-2.014
		l-5.367,6.315l0.869,1.249l1.921-2.248l3.101,4.596l1.098-1.282l-3.115-4.583l1.689-1.98L292.617,257.999z M273.77,284.761
		l1.721-2.047c0.005-0.006,0.091-0.08,0.214-0.221c0.444-0.521,1.394-1.873,0.794-3.205l-0.372-0.668
		c-0.019-0.035-0.495-0.795-1.325-0.848c-0.6-0.037-1.209,0.305-1.826,1.027l-3.351,3.928l3.952,5.896l1.098-1.283l-1.372-2.035
		l-0.812-1.189l-1.009-1.48l2.373-2.781c0,0,0.682-0.846,1.115-0.252l0.217,0.355c0,0,0.387,0.576-0.013,1.045l-2.216,2.568
		L273.77,284.761z M309.263,236.277c-1.044,1.227-0.208,2.414-0.218,2.428l1.875,2.678l-5.357,0.156
		c-0.045,0.004-0.824-0.006-1.167,0.445c-0.475,0.584,0.019,1.273,0.019,1.273l3.505,5.199l1.11-1.302l-2.645-3.856l5.725-0.227
		c0.037-0.014,0.541-0.056,0.84-0.407c0.058-0.062,0.103-0.136,0.142-0.239c0.009-0.039,0.156-0.336-0.136-0.84l-3.615-5.398
		L309.263,236.277z M280.458,272.103l-2.546,2.996c0,0-0.816,1.012-0.271,1.803l1.314,1.965c0,0,0.554,0.855,1.611-0.389
		l1.263-1.479c0,0,0.599-0.646,0.618-1.435c0,0,0-0.446-0.262-0.883L280.458,272.103z M280.666,269.884l2.83,4.105
		c0.426,0.689,0.422,1.383,0.424,1.408c-0.034,1.096-0.72,2.004-0.934,2.254l-0.049,0.059l-1.967,2.307
		c-0.641,0.75-1.248,1.117-1.798,1.076c-0.554-0.045-0.84-0.471-0.849-0.488l-1.996-2.963c-0.938-1.434,0.425-3.164,0.483-3.234
		l0.761-0.897L280.666,269.884z M297.412,252.236l-2.547,2.998c0,0-0.815,1.014-0.273,1.804l1.314,1.962
		c0,0,0.553,0.857,1.613-0.385l1.264-1.48c0,0,0.6-0.645,0.613-1.434c0,0,0.004-0.45-0.259-0.885L297.412,252.236z M297.621,250.02
		l2.828,4.103c0.428,0.689,0.423,1.385,0.426,1.407c-0.035,1.097-0.723,2.009-0.934,2.256l-0.051,0.06l-1.965,2.305
		c-0.643,0.748-1.249,1.119-1.799,1.077c-0.554-0.046-0.84-0.469-0.849-0.489l-1.995-2.963c-0.94-1.432,0.424-3.161,0.485-3.232
		l0.756-0.895L297.621,250.02z M303.265,245.377l-2.542,2.994c0,0-0.818,1.015-0.277,1.806l1.316,1.962c0,0,0.552,0.857,1.617-0.388
		l1.258-1.477c0,0,0.599-0.648,0.617-1.436c0,0,0.002-0.448-0.26-0.885L303.265,245.377z M303.477,243.157l2.83,4.104
		c0.425,0.691,0.42,1.382,0.423,1.409c-0.036,1.095-0.722,2.007-0.933,2.255l-0.053,0.057l-1.967,2.307
		c-0.64,0.748-1.248,1.12-1.797,1.078c-0.553-0.045-0.84-0.471-0.848-0.488l-1.995-2.964c-0.94-1.431,0.422-3.16,0.483-3.233
		l0.758-0.896L303.477,243.157z"/>
</g>
<g id="Outline">
	<path fill="none" stroke="#231F20" stroke-width="0.5" d="M253.32,22.567c0.164,6.16-4.763,5.499-10.804,5.654
		c-6.041,0.156-10.924,0.277-11.063-5.093c-0.075-2.959,4.75-5.496,10.782-5.649C248.285,17.32,253.248,19.607,253.32,22.567z"/>
	<path fill="none" stroke="#231F20" stroke-miterlimit="10" d="M117.254,172.832c0,0-60.119,52.191-69.875,59.17
		c-7.206,5.155-23.515,35.143,16.382,37.284"/>
	<path fill="none" stroke="#231F20" stroke-miterlimit="10" d="M275.338,295.089c16.768-3.493,63.466-65.739,75.531-91.344"/>
	<path fill="none" stroke="#231F20" stroke-miterlimit="10" d="M84.857,230.105"/>
	<path fill="none" stroke="#000000" stroke-width="0.5" d="M63.765,269.286c0,0-21.109-1.5-20.349-17.329
		c0.754-15.816,26.385-22.608,42.195-21.853c15.84,0.757,25.059,2.229,25.059,2.229S80.354,267.787,63.765,269.286z"/>
	<path fill="none" stroke="#231F20" stroke-miterlimit="10" d="M231.564,24.163c-1.81,0.112-2.778,0.231-2.778,0.231
		c0,0-39.187,5.266-60.292,23.361c-21.086,18.068-33.141,32.405-37.68,70.829c-4.522,38.425-13.177,53.487-13.177,53.487
		s32.031-12.042,58.398-9.794c26.383,2.259,71.6,11.682,149.208,36.568"/>
	<path fill="none" stroke="#231F20" stroke-miterlimit="10" d="M325.247,198.846c0,0,15.815,4.124,24.854,6.026
		c9.036,1.871,43.336,8.645,43.336,8.645s3.387-27.495,3.001-47.09c-0.363-19.588-1.887-37.668-16.183-59.144
		c-14.316-21.477-53.869-58.386-74.576-68.559l-7.569-3.03c-17.326-6.73-32.999-9.704-45.042-10.934"/>
	<path fill="none" stroke="#231F20" stroke-width="0.5" d="M174.908,161.53c0,0,6.416-39.556,22.598-82.89
		c16.212-43.333,21.488-53.121,31.28-54.246"/>
	<path fill="none" stroke="#231F20" stroke-width="0.25" stroke-dasharray="1,0.5" d="M167.373,161.895c0,0-1.517-2.25,1.866-14.672
		c3.405-12.434,29.028-97.211,33.932-104.753c4.899-7.532,12.055-13.934,16.568-16.578"/>
	<path fill="none" stroke="#231F20" stroke-width="0.25" stroke-dasharray="1,0.5" d="M183.955,163.04c0,0-0.754-4.526,2.261-18.837
		c3.017-14.324,27.127-91.93,32.406-100.985c3.581-6.141,8.735-12.982,13.915-16.616"/>
	<path fill="none" stroke="#231F20" stroke-width="0.25" stroke-dasharray="1,0.5" d="M119.897,166.427
		c0,0,44.837-13.939,56.516-13.186c11.683,0.758,81.398,16.577,106.623,25.249c25.243,8.66,43.708,12.049,43.708,12.049
		l66.694,17.696"/>
	<path fill="none" stroke="#231F20" stroke-width="0.25" d="M176.05,46.487c0.495,0.667-1.387,2.887-4.182,4.998
		c-2.788,2.104-5.449,3.296-5.928,2.655c-0.465-0.638,1.387-2.879,4.184-4.964C172.903,47.052,175.564,45.857,176.05,46.487z"/>
	<path fill="none" stroke="#231F20" stroke-width="0.25" d="M173.017,47.898c0.229,0.298-0.654,1.355-2.002,2.369
		c-1.351,1.024-2.602,1.565-2.829,1.281c-0.236-0.321,0.672-1.386,1.993-2.374C171.5,48.159,172.778,47.587,173.017,47.898z"/>
	<path fill="none" stroke="#231F20" stroke-width="0.25" d="M277.587,44.115c-4.035-1.034-7.721-0.26-8.239,1.743
		c-0.522,2.021,2.313,4.501,6.348,5.546c4.022,1.049,7.712,0.266,8.241-1.744C284.459,47.646,281.608,45.161,277.587,44.115z
		 M280.598,48.09c-0.205,0.816-2.052,1.06-4.144,0.523c-2.061-0.523-3.56-1.637-3.355-2.476c0.225-0.825,2.07-1.064,4.154-0.537
		C279.315,46.156,280.832,47.251,280.598,48.09z"/>
	<path fill="none" stroke="#231F20" stroke-width="0.25" d="M340.726,102.279c-0.361,10.728-11.668,98.169-11.668,98.169
		l-15.814-5.157c0,0,15.385-79.271,14.557-93.873c-1.914-33.718-15.467-53.137-20.746-62.187
		C307.055,39.232,342.179,59.023,340.726,102.279z"/>
	<path fill="none" stroke="#A7A9AC" stroke-width="0.25" d="M313.242,195.292c0,0-9.939,8.561-58.539,26.056
		c-48.6,17.496-71.443,34.997-71.443,34.997l12.634,7.774c0,0,43.255-24.789,68.042-32.563
		c24.787-7.773,63.665-30.622,65.125-31.105C330.519,199.966,313.242,195.292,313.242,195.292z"/>
	<path fill="none" stroke="#231F20" stroke-width="0.25" d="M313.242,195.292c0,0-9.939,8.561-58.539,26.056
		c-48.6,17.496-72.78,35.956-72.78,35.956l12.894,7.598c0,0,44.332-25.572,69.119-33.346c24.787-7.773,63.665-30.622,65.125-31.105
		C330.519,199.966,313.242,195.292,313.242,195.292z"/>
	<g>
		<path fill="none" stroke="#231F20" stroke-width="0.5" d="M105.051,231.774c9.121,1.042,10.424,0,30.304,8.122
			c22.172,9.059,87.966,50.603,97.721,55.219c12.498,5.919,27.125,4.044,42.47-0.098c-34.551,4.853-42.667-9.19-99.51-40.798
			c-56.882-31.646-71.591-30.14-94.191-32.019c-20.189-1.683-34.964,10.743-37.875,13.428c-6.35,7.907-15.238,32.026,20.65,33.314"
			/>
		<path fill="none" stroke="#231F20" stroke-width="0.5" d="M63.765,269.286c0,0-21.109-1.5-20.349-17.329
			c0.754-15.816,26.385-22.608,42.195-21.853c15.84,0.757,24.913,2.451,24.913,2.451"/>
		<path fill="none" stroke="#231F20" stroke-width="0.5" d="M640.229,62.197c0.154,6.16-4.771,5.498-10.809,5.653
			c-6.041,0.157-10.93,0.279-11.059-5.093c-0.08-2.959,4.748-5.491,10.787-5.646C635.182,56.954,640.148,59.237,640.229,62.197z"/>
		
			<line fill="none" stroke="#A7A9AC" stroke-width="0.25" stroke-dasharray="1,0.5" x1="578.176" y1="257.084" x2="571.871" y2="256.572"/>
		<path fill="none" stroke="#231F20" stroke-miterlimit="10" d="M618.492,62.851c-85.637,6.502-113.899,72.767-123.814,87.95
			c-10.451,15.98-1.148,79.135-1.148,79.135s11.582,12.398,27.561,19.767c15.979,7.374,56.521,11.686,56.521,11.686
			c-1.842-7.372-7.996-54.692-7.996-54.692s-0.393-14.474,9.195-25.739c9.586-11.271,22.641-19.598,47.33-19.738h0.012
			c0.156,0.018,0.311,0.021,0.49,0.021c1.52,0,3.291-0.002,5.273-0.021c1.992,0.018,3.771,0.021,5.285,0.021
			c0.166,0,0.322-0.002,0.48-0.021c24.689,0.14,37.77,8.467,47.35,19.738c9.59,11.265,7.314,25.739,7.314,25.739l-0.27,3.42
			c0,0-4.006,43.9-5.84,51.271c0,0,40.547-4.312,56.523-11.686c15.971-7.369,25.174-17.189,25.174-17.189s11.684-65.732,1.25-81.712
			c-10.135-15.49-39.348-84.149-129.121-88.27"/>
		<path fill="none" stroke="#231F20" stroke-miterlimit="10" d="M632.277,62.34"/>
		<path fill="none" stroke="#231F20" stroke-width="0.25" stroke-dasharray="1,0.5" d="M574.146,254.028
			c-12.369,0.544-47.842-8.048-56.963-11.275c-9.143-3.228-24.729-16.664-24.729-16.664"/>
		<path fill="none" stroke="#A7A9AC" stroke-width="0.25" stroke-dasharray="1,0.5" d="M685.389,257.397
			c0,0,44.084-6.983,55.354-12.358c11.303-5.384,27.426-19.354,27.426-19.354"/>
		<line fill="none" stroke="#231F20" stroke-width="0.4" x1="629.777" y1="67.815" x2="629.494" y2="159.972"/>
		<path fill="none" stroke="#231F20" stroke-width="0.25" stroke-dasharray="1,0.5" d="M626.624,67.939
			c0,0-2.862,46.779-0.253,92.823"/>
		<path fill="none" stroke="#231F20" stroke-width="0.25" stroke-dasharray="1,0.5" d="M632.805,67.815
			c0,0,2.793,47.097,0.172,93.142"/>
		<path fill="none" stroke="#231F20" stroke-width="0.25" stroke-dasharray="1,0.5" d="M573.143,254.957
			c0,0-9.189-48.454-6.936-60.286c2.258-11.844,13.521-41.154,63.695-40.588c50.184,0.556,71.143,27.684,64.84,60.321
			c-0.678,3.499-6.596,41.096-6.596,41.096"/>
		<path fill="none" stroke="#231F20" stroke-width="0.25" stroke-dasharray="1,0.5" d="M566.697,252.398
			c0,0-7.656-42.744-6.307-55.806c1.242-12.016,16.256-45.614,69.908-45.063c53.641,0.563,77.018,31.81,70.283,64.436
			c-0.719,3.521-6.758,36.981-6.758,36.981"/>
		<rect x="569.863" y="233.387" fill="#231F20" width="24.52" height="27.585"/>
		<rect x="569.863" y="233.387" fill="none" stroke="#484848" stroke-width="0.25" width="24.52" height="27.585"/>
		<polyline fill="none" stroke="#231F20" stroke-width="0.5" points="684.533,260.972 690.25,260.972 690.25,231.366 
			596.617,233.387 596.617,260.972 		"/>
		<path fill="#FFFFFF" d="M606.188,266.365h-11.186c-2.738,0-4.881-3.024-4.881-6.879v-21.91c0-3.855,2.143-6.877,4.881-6.877
			h11.186c1.805,0,3.354,1.306,4.202,3.296l-1.7,0.042c-0.623-1.104-1.523-1.812-2.502-1.812h-11.186
			c-1.814,0-3.367,2.454-3.367,5.351v21.91c0,2.899,1.553,5.35,3.367,5.35h11.186c1.822,0,1.474-0.517,2.524-2.213l1.938,0.081
			C608.873,265.936,608.934,266.365,606.188,266.365"/>
		<path fill="none" stroke="#231F20" d="M610.461,262.573c-0.786,2.292-2.445,3.839-4.41,3.839h-11.186
			c-2.738,0-4.881-3.024-4.881-6.879v-21.91c0-3.855,2.143-6.877,4.881-6.877h11.186c1.717,0,3.2,1.181,4.071,3.008
			 M608.277,233.647c-0.6-0.851-1.384-1.375-2.227-1.376h-11.186c-1.814,0-3.367,2.454-3.367,5.351v21.91
			c0,2.899,1.553,5.35,3.367,5.35h11.186c1.139,0,2.172-0.958,2.786-2.383"/>
		<polygon fill="none" stroke="#231F20" stroke-width="0.5" points="597.955,233.929 596.805,261.487 684.391,265.135 
			685.621,235.56 		"/>
		<path fill="none" stroke="#231F20" stroke-width="0.5" d="M577.156,99.15c-1.16-1.992-5.031-1.899-8.65,0.186
			c-3.627,2.09-5.637,5.412-4.496,7.381c1.143,1.995,5.021,1.909,8.643-0.169C576.289,104.446,578.293,101.13,577.156,99.15z
			 M570.711,103.892c-1.736,0.991-3.475,1.182-3.93,0.402c-0.453-0.757,0.598-2.183,2.32-3.18c1.727-1.004,3.467-1.177,3.9-0.41
			C573.467,101.472,572.428,102.902,570.711,103.892z"/>
		<path fill="none" stroke="#231F20" stroke-width="0.5" d="M693.629,99.337c-3.635-2.085-7.502-2.18-8.641-0.186
			c-1.152,1.979,0.859,5.295,4.504,7.398c3.605,2.078,7.494,2.163,8.643,0.167C699.27,104.749,697.236,101.425,693.629,99.337z
			 M695.355,104.295c-0.441,0.776-2.209,0.585-3.92-0.402c-1.732-0.991-2.768-2.42-2.33-3.188c0.455-0.768,2.215-0.595,3.936,0.408
			C694.75,102.11,695.787,103.538,695.355,104.295z"/>
		<path fill="none" stroke="#231F20" stroke-miterlimit="10" d="M539.195,443.586c0,0-65.564,15.956-79.037,21.205
			c-13.446,5.229-24.673,6.722-22.423,15.698c2.25,8.965,20.937,66.545,66.539,73.277c45.632,6.732,109.573-14.742,156.675-46.152"
			/>
		<path fill="none" stroke="#231F20" stroke-miterlimit="10" d="M691.189,337.609c-6.662-1.192-12.661-1.972-18.2-2.392
			c-19.794-1.507-33.979,12.358-51.564,14.694c-17.94,2.391-24.719,12.2-39.444,31.146c-22.366,28.803-43.293,62.783-43.293,62.783
			s16.455,13.463,33.649,23.934c17.195,10.463,55.324,26.169,55.324,26.169v-0.046c9.199,5.05,19.429,8.91,28.419,12.019
			c21.684,7.478,90.486,27.657,107.684,29.899c8.232,1.076,49.937,9.002,56.466-4.385c6.534-13.391,8.584-71.891,8.584-71.891
			c-1.273-15.876-4.956-29.35-10.089-40.801c-5.965-13.327-24.996-23.35-30.992-31.732c-5.986-8.373-28.848-26.673-33.699-29.9
			c-7.637-5.087-34.225-12.894-41.975-15.105"/>
		<path fill="none" stroke="#231F20" stroke-width="0.25" stroke-dasharray="1,0.5" d="M541.344,439.48
			c0,0,31.438,29.312,86.027,50.241c9.412,3.616,18.55,8.305,28.738,11.968l5.391,1.804c0,0,62.988,21.628,110.925,28.793
			c21.034,3.146,40.268,2.626,48.905-0.949"/>
		<path fill="none" stroke="#231F20" stroke-width="0.25" stroke-dasharray="1,0.5" d="M771.695,537.652
			c0,0,3.717-53.76-3.383-103.121c-3.615-25.156-50.883-91.426-50.883-91.426"/>
		<path fill="none" stroke="#231F20" stroke-width="0.5" d="M768.27,536.448c0,0,2.927-49.754-3.904-101.92
			C761.064,409.331,713,342.45,713,342.45"/>
		<path fill="none" stroke="#231F20" stroke-width="0.25" stroke-dasharray="1,0.5" d="M764.887,535.374
			c0,0,2.412-41.674-4.472-100.844c-2.94-25.245-50.173-90.571-50.173-90.571"/>
		<path fill="none" stroke="#231F20" stroke-width="0.25" d="M632.076,495.859c0,0-18.711,8.696-83.863,8.117
			c-65.16-0.572-97.197,7.943-97.197,7.943l5.861,9.396c0,0,66.939-9.4,99.85-7.986c32.896,1.416,95.461-6.754,97.401-6.701
			C667.324,507.008,631.366,495.532,632.076,495.859z"/>
		<path fill="none" stroke="#231F20" stroke-width="0.25" d="M697.376,342.823c2.088,4.734,5.462,13.924,5.917,24.688
			c0.305,7.378-8.659,40.936-12.441,53.966c-11.848,40.823-26.635,75.622-33.875,84.843l-25.49-10.242
			c0,0,39.614-53.531,59.365-124.643l4.42-29.083"/>
		<path fill="none" stroke="#231F20" stroke-width="0.5" d="M713.178,339.46c-0.764,6.216-5.607,4.816-11.708,4.07
			c-6.093-0.746-11.018-1.351-10.356-6.766c0.367-2.992,5.589-4.818,11.682-4.072C708.891,333.437,713.541,336.478,713.178,339.46z"
			/>
		<path fill="none" stroke="#231F20" stroke-miterlimit="10" d="M307.271,443.604c0,0,65.062,15.923,78.433,21.134
			c13.356,5.195,24.501,6.678,22.262,15.586c-2.225,8.906-20.784,66.071-66.064,72.757c-45.304,6.682-108.624-14.661-155.383-45.839
			"/>
		<path fill="none" stroke="#231F20" stroke-miterlimit="10" d="M156.508,338.424c6.703-1.206,12.322-1.913,17.882-2.332
			c19.663-1.495,33.744,12.268,51.205,14.588c17.811,2.368,24.536,12.114,39.159,30.923c22.208,28.598,42.988,62.332,42.988,62.332
			s-16.333,13.375-33.409,23.768c-17.071,10.386-54.932,25.982-54.932,25.982v-0.045c-9.139,5.01-19.296,8.846-28.216,11.934
			c-21.528,7.42-89.838,27.457-106.916,29.682c-8.171,1.07-49.581,8.944-56.067-4.35c-6.484-13.295-8.518-71.381-8.518-71.381
			c1.26-15.76,4.926-29.136,10.015-40.504c5.921-13.237,24.821-23.186,30.77-31.51c5.94-8.313,28.648-26.48,33.46-29.692
			c7.506-5,33.466-12.648,41.441-14.93"/>
		<path fill="none" stroke="#231F20" stroke-width="0.25" stroke-dasharray="1,0.5" d="M305.306,439.42
			c0,0-31.414,29.288-85.616,50.073c-9.343,3.586-18.414,8.244-28.536,11.882l-5.352,1.79c0,0-62.54,21.469-110.138,28.588
			c-20.876,3.117-39.976,2.607-48.552-0.943"/>
		<path fill="none" stroke="#231F20" stroke-width="0.25" stroke-dasharray="1,0.5" d="M76.396,537.079
			c0,0-3.694-53.371,3.352-102.384c3.597-24.979,50.517-90.778,50.517-90.778"/>
		<path fill="none" stroke="#231F20" stroke-width="0.5" d="M79.797,535.886c0,0-2.91-49.403,3.88-101.19
			c3.277-25.019,50.703-91.333,50.703-91.333"/>
		<path fill="none" stroke="#231F20" stroke-width="0.25" stroke-dasharray="1,0.5" d="M83.155,534.818
			c0,0-2.397-41.373,4.439-100.122c2.921-25.065,49.864-89.985,49.864-89.985"/>
		<path fill="none" stroke="#231F20" stroke-width="0.25" d="M215.018,495.586c0,0,18.572,8.632,83.268,8.062
			c64.689-0.574,96.627,7.991,96.627,7.991l-6.094,9.304c0,0-66.321-9.411-98.993-8.01c-32.66,1.402-94.775-6.703-96.695-6.65"/>
		<path fill="none" stroke="#231F20" stroke-width="0.25" d="M150.182,343.631c-2.07,4.698-5.419,13.827-5.864,24.52
			c-0.31,7.329,8.585,40.646,12.335,53.583c11.772,40.534,26.465,74.817,33.663,83.973l24.703-10.12
			c0,0-38.749-52.933-58.365-123.538l-4.368-28.749"/>
		<path fill="none" stroke="#231F20" stroke-width="0.5" d="M134.495,340.301c0.758,6.172,5.572,4.781,11.621,4.04
			c6.052-0.738,10.945-1.337,10.286-6.713c-0.368-2.967-5.543-4.787-11.597-4.043C138.754,334.322,134.133,337.339,134.495,340.301z
			"/>
	</g>
</g>
</svg>
