<?xml version="1.0" encoding="utf-8"?>
<!-- Generator: Adobe Illustrator 24.3.0, SVG Export Plug-In . SVG Version: 6.00 Build 0)  -->
<svg version="1.1" id="Layer_1" xmlns="http://www.w3.org/2000/svg" xmlns:xlink="http://www.w3.org/1999/xlink" x="0px" y="0px"
	 viewBox="0 0 300 33.7" style="enable-background:new 0 0 300 33.7;" xml:space="preserve">
<style type="text/css">
	.st0{fill:#4C4C4C;}
</style>
<path class="st0" d="M261,32.3c-0.2,0-0.5,0-0.7,0h-10.7l3.6-1.5c0,0,0,0,0.1,0l0.2-0.1l0.2-0.1c7.6-3.3,14-7,18.5-11
	c3.7-3.3,6-6.6,6.2-9.1c0.1-1.3-0.3-2.2-1.3-2.9c-1.3-0.8-3.5-1-6.2-0.5c-3.2,0.6-7.1,2.1-11.2,4.4l-1.7,0.9l3.1-11l37.4,0l0,0.8
	c0,7.8-2.9,15-8.3,20.2c-3.2,3.2-7.3,5.6-12.1,7.3c-3.7,1.3-7.8,2.1-12.3,2.4l0,0l-4,0.2C261.4,32.3,261.2,32.3,261,32.3z
	 M257.4,30.6l2.3,0c6.7,0.1,12.7-0.7,17.8-2.4c4.6-1.6,8.5-3.9,11.5-6.9c2.6-2.6,4.6-5.6,5.9-9c1.1-2.9,1.7-6,1.8-9.2l-34.6,0
	l-1.7,6.2c3.7-1.9,7.1-3.2,10.1-3.7c3.2-0.6,5.7-0.3,7.4,0.7c1.4,0.9,2.2,2.5,2,4.4c-0.3,3-2.7,6.6-6.7,10.2
	C269.2,24.2,263.8,27.6,257.4,30.6z"/>
<path class="st0" d="M107.3,7.2l-3.4,13L89.1,3.9c-0.1-0.1-2.1-2.6-4.4-2.5c-3.2,0.1-3.9,3.4-3.9,3.4l-7,24.7h7l5-18.5l15.9,17.2
	c0,0.1,1.5,1.5,3.4,1.5c0.4,0,0.8-0.1,1.1-0.2c0.2-0.1,1.5-0.4,2.3-2.7l7.3-25.6h-0.6C108.8,1.4,107.3,7.2,107.3,7.2"/>
<path class="st0" d="M146.8,7.3c-0.1,0,1.7-4.9,5.8-5.9l-33.9,0.1l-1.6,6h12.1l-6.1,21.9h6.9l6-21.9h10.7L146.8,7.3z"/>
<path class="st0" d="M13.4,19.7l10.9-0.1c0,0,0.5,0.1,1.3,0.1c2.8,0,9.5-0.6,12.1-6l1.1-2.9c0.1-0.1,1.2-3.6-0.9-6.4
	c-1.5-2-4.2-2.9-8.1-2.9H8.7l-7.9,28h6.9l2.7-9.7L12,14L13.9,7h15c0,0,4.5-0.1,3.8,2.8l-0.5,1.6c0,0-0.8,2.7-3.3,2.7L14.9,14
	L13.4,19.7z"/>
<path class="st0" d="M258.6,1.4c-6.6,0-8.1,5.7-8.1,5.7l-3.4,13L232.4,3.9c-0.1-0.1-2.2-2.6-4.5-2.5c-3.1,0.1-3.9,3.4-3.9,3.4
	l-6.9,24.7h7l5-18.5l15.9,17.2c0.1,0.1,1.6,1.5,3.5,1.5c0.3,0,0.7-0.1,1.1-0.2c0.1-0.1,1.5-0.4,2.2-2.7l7.2-25.6H258.6z"/>
<path class="st0" d="M67.1,19.2c-0.7,2-2.1,3.2-2.1,3.2c-2.5,2-6.1,1.9-6.1,1.9h-8c-6.7,0-5.5-4-5.5-4l2.6-9.3
	c1-3.8,6.3-3.9,6.3-3.9l16.1,0L67.1,19.2z M58.5,1.7l-4.8,0c-0.4,0-9.4,0.4-11.4,7.1l-3.9,14.1c0,0.1-0.6,2.1,0.7,3.9
	c1.3,1.8,4.1,2.7,8.1,2.7h12.4H60c1.3,0,6-0.3,9.5-3.1c0.1-0.1,2.2-1.9,3.3-5L78,1.7L58.5,1.7z"/>
<path class="st0" d="M174,19.2c-0.7,2-2.1,3.2-2.1,3.2c-2.5,2-6.1,1.9-6.1,1.9h-8c-6.7,0-5.5-4-5.5-4l2.6-9.3c1-3.8,6.3-3.9,6.3-3.9
	l16.1,0L174,19.2z M165.4,1.7l-4.8,0c-0.4,0-9.4,0.4-11.4,7.1l-3.9,14.1c0,0.1-0.6,2.1,0.7,3.9c1.3,1.8,4.1,2.7,8.1,2.7h12.4h0.3
	c1.3,0,6-0.3,9.5-3.1c0.1-0.1,2.2-1.9,3.3-5l5.3-19.7L165.4,1.7z"/>
<path class="st0" d="M210.9,19.2c-0.7,2-2.1,3.2-2.1,3.2c-2.5,2-6.1,1.9-6.1,1.9h-8c-6.7,0-5.5-4-5.5-4l2.6-9.3
	c1-3.8,6.3-3.9,6.3-3.9l16.1,0L210.9,19.2z M202.3,1.7l-4.8,0c-0.4,0-9.4,0.4-11.4,7.1l-3.9,14.1c0,0.1-0.6,2.1,0.7,3.9
	c1.3,1.8,4.1,2.7,8.1,2.7h12.4h0.3c1.3,0,6-0.3,9.5-3.1c0.1-0.1,2.2-1.9,3.3-5l5.3-19.7L202.3,1.7z"/>
</svg>
